<svg width="128" height="128" viewBox="0 0 128 128" fill="none" xmlns="http://www.w3.org/2000/svg">
<path d="M80.2637 58.7363C84.577 63.0497 87 68.9 87 75C87 81.1 84.577 86.9503 80.2637 91.2637C75.9503 95.577 70.1 98 64 98C57.9 98 52.0497 95.577 47.7363 91.2637L80.2637 58.7363Z" fill="#DD5746"/>
<path fill-rule="evenodd" clip-rule="evenodd" d="M100 5C105.523 5 110 9.47715 110 15V112C110 117.523 105.523 122 100 122H28C22.4772 122 18 117.523 18 112V15C18 9.47715 22.4772 5 28 5H100ZM64 40C44.67 40 29 55.67 29 75C29 94.33 44.67 110 64 110C83.33 110 99 94.33 99 75C99 55.67 83.33 40 64 40ZM35 16C31.6863 16 29 18.6863 29 22C29 25.3137 31.6863 28 35 28C38.3137 28 41 25.3137 41 22C41 18.6863 38.3137 16 35 16ZM52 16C48.6863 16 46 18.6863 46 22C46 25.3137 48.6863 28 52 28C55.3137 28 58 25.3137 58 22C58 18.6863 55.3137 16 52 16Z" fill="#DD5746"/>
</svg>
