<svg width="390" height="120" viewBox="0 0 390 120" fill="none" xmlns="http://www.w3.org/2000/svg">
<path d="M62.2637 56.5763C66.577 60.8897 69 66.74 69 72.84C69 78.94 66.577 84.7903 62.2637 89.1037C57.9503 93.417 52.1 95.84 46 95.84C39.9 95.84 34.0497 93.417 29.7363 89.1037L62.2637 56.5763Z" fill="#DD5746"/>
<path fill-rule="evenodd" clip-rule="evenodd" d="M82 2.84C87.5228 2.84 92 7.31715 92 12.84V109.84C92 115.363 87.5228 119.84 82 119.84H10C4.47715 119.84 1.48989e-07 115.363 0 109.84V12.84C0 7.31715 4.47715 2.84 10 2.84H82ZM46 37.84C26.67 37.84 11 53.51 11 72.84C11 92.17 26.67 107.84 46 107.84C65.33 107.84 81 92.17 81 72.84C81 53.51 65.33 37.84 46 37.84ZM17 13.84C13.6863 13.84 11 16.5263 11 19.84C11 23.1537 13.6863 25.84 17 25.84C20.3137 25.84 23 23.1537 23 19.84C23 16.5263 20.3137 13.84 17 13.84ZM34 13.84C30.6863 13.84 28 16.5263 28 19.84C28 23.1537 30.6863 25.84 34 25.84C37.3137 25.84 40 23.1537 40 19.84C40 16.5263 37.3137 13.84 34 13.84Z" fill="#DD5746"/>
<path d="M138.52 116.84V59.88H156.36L169.64 99L182.6 59.88H200.04V116.84H188.28V76.36L174.28 116.84H164.6L150.44 76.76V116.84H138.52Z" fill="#DD5746"/>
<path d="M239.418 59.8L261.098 116.84H247.978L243.498 104.12H222.298L217.658 116.84H204.858L226.538 59.8H239.418ZM240.458 95L232.938 73.8L225.338 95H240.458Z" fill="#DD5746"/>
<path d="M266.344 59.88L294.664 59.96C300.264 59.96 304.904 61.24 308.504 63.96C312.024 66.6 313.864 70.68 313.864 76.12C313.864 79.4 313.064 82.28 311.464 84.76C309.864 87.24 307.624 89 304.824 90.12C309.704 91.08 312.504 95.56 313.224 103.4C313.224 103.64 313.224 104.44 313.384 105.88C313.464 107.24 313.544 108.36 313.704 109.16C313.784 109.96 313.944 111 314.104 112.2C314.264 113.32 314.504 114.36 314.824 115.16C315.144 115.96 315.464 116.52 315.944 116.92H302.984C302.504 116.04 302.184 114.92 302.024 113.64C301.784 112.36 301.624 110.68 301.464 108.6C301.304 106.52 301.224 105.4 301.224 105.16C300.744 101.16 299.784 98.44 298.184 96.84C296.584 95.32 293.864 94.52 289.864 94.52H278.744V116.84H266.344V59.88ZM278.744 69.8V85.56H290.584C294.024 85.56 296.744 85 298.664 83.88C300.584 82.76 301.624 80.68 301.624 77.48C301.624 74.44 300.664 72.44 298.744 71.4C296.824 70.28 294.344 69.8 291.144 69.8H278.744Z" fill="#DD5746"/>
<path d="M317.907 59.88H330.947L343.747 99.88L356.707 59.88H369.667L350.707 116.84H336.547L317.907 59.88Z" fill="#DD5746"/>
<path d="M387.017 59.88V116.84H374.457V59.88H387.017Z" fill="#DD5746"/>
<path d="M158.92 31.48V36.84H138.76V8.36H145V31.48H158.92Z" fill="#DD5746"/>
<path d="M176.631 8.32L187.471 36.84H180.911L178.671 30.48H168.071L165.751 36.84H159.351L170.191 8.32H176.631ZM177.151 25.92L173.391 15.32L169.591 25.92H177.151Z" fill="#DD5746"/>
<path d="M184.938 8.36H191.458L197.858 28.36L204.338 8.36H210.818L201.338 36.84H194.258L184.938 8.36Z" fill="#DD5746"/>
<path d="M225.537 8.32L236.377 36.84H229.817L227.577 30.48H216.977L214.657 36.84H208.257L219.097 8.32H225.537ZM226.057 25.92L222.297 15.32L218.497 25.92H226.057Z" fill="#DD5746"/>
<path d="M238.76 36.84V8.36H245.12L256.84 27.44V8.36H262.84V36.84H256.6L244.8 17.72V36.84H238.76Z" fill="#DD5746"/>
<path d="M268.448 36.84V8.36H279.968C284.368 8.36 287.768 9.6 290.168 12.04C292.568 14.52 293.768 18.04 293.768 22.6C293.768 27.2 292.568 30.72 290.168 33.16C287.768 35.64 284.368 36.84 279.968 36.84H268.448ZM274.648 31.64H279.168C284.688 31.64 287.448 28.64 287.448 22.6C287.448 19.72 286.768 17.48 285.408 15.92C284.048 14.36 281.968 13.56 279.208 13.56H274.648V31.64Z" fill="#DD5746"/>
<path d="M319.417 8.36V13.48H304.257V19.68H318.177V24.6H304.257V31.6H319.697V36.84H298.057V8.36H319.417Z" fill="#DD5746"/>
<path d="M324.234 8.36L338.394 8.4C341.194 8.4 343.514 9.04 345.314 10.4C347.074 11.72 347.994 13.76 347.994 16.48C347.994 18.12 347.594 19.56 346.794 20.8C345.994 22.04 344.874 22.92 343.474 23.48C345.914 23.96 347.314 26.2 347.674 30.12C347.674 30.24 347.674 30.64 347.754 31.36C347.794 32.04 347.834 32.6 347.914 33C347.954 33.4 348.034 33.92 348.114 34.52C348.194 35.08 348.314 35.6 348.474 36C348.634 36.4 348.794 36.68 349.034 36.88H342.554C342.314 36.44 342.154 35.88 342.074 35.24C341.954 34.6 341.874 33.76 341.794 32.72C341.714 31.68 341.674 31.12 341.674 31C341.434 29 340.954 27.64 340.154 26.84C339.354 26.08 337.994 25.68 335.994 25.68H330.434V36.84H324.234V8.36ZM330.434 13.32V21.2H336.354C338.074 21.2 339.434 20.92 340.394 20.36C341.354 19.8 341.874 18.76 341.874 17.16C341.874 15.64 341.394 14.64 340.434 14.12C339.474 13.56 338.234 13.32 336.634 13.32H330.434Z" fill="#DD5746"/>
<path d="M352.862 36.84V8.28H359.142V36.84H352.862ZM362.942 0L356.782 5.68H352.822L356.662 0H362.942Z" fill="#DD5746"/>
<path d="M378.818 8.32L389.658 36.84H383.098L380.858 30.48H370.258L367.938 36.84H361.538L372.378 8.32H378.818ZM379.338 25.92L375.578 15.32L371.778 25.92H379.338Z" fill="#DD5746"/>
</svg>
